<svg width="24" height="24" viewBox="0 0 24 24" fill="none" xmlns="http://www.w3.org/2000/svg">
<path d="M20.1302 18C20.0298 17.712 19.9627 17.4133 19.9302 17.11C19.2602 17.81 18.4502 18.16 17.5202 18.16C16.6902 18.16 16.0002 17.92 15.4702 17.45C14.9402 17 14.6702 16.39 14.6702 15.66C14.6702 14.78 15.0002 14.1 15.6702 13.61C16.3402 13.12 17.2802 12.88 18.5002 12.88H19.9002V12.24C19.9002 11.75 19.7502 11.36 19.4502 11.07C19.1502 10.78 18.7002 10.64 18.1202 10.64C17.6002 10.64 17.1702 10.76 16.8202 11C16.4702 11.25 16.3002 11.54 16.3002 11.89H14.8402C14.8402 11.46 14.9902 11.05 15.2902 10.65C15.5702 10.25 16.0002 9.94 16.5102 9.71C17.0202 9.5 17.5702 9.36 18.2002 9.36C19.1802 9.36 19.9402 9.6 20.4902 10.09C21.0402 10.58 21.3302 11.25 21.3502 12.11V16C21.3502 16.8 21.4502 17.42 21.6502 17.88V18H20.1302ZM17.7302 16.88C18.1802 16.88 18.6102 16.77 19.0202 16.56C19.4202 16.35 19.7202 16.07 19.9002 15.73V14.16H18.7702C17.0002 14.16 16.1102 14.63 16.1102 15.57C16.1102 16 16.2602 16.3 16.5702 16.53C16.8702 16.76 17.2502 16.88 17.7302 16.88ZM5.53024 13.71H9.60024L7.57024 8.29L5.53024 13.71ZM6.71024 6H8.43024L13.1402 18H11.2102L10.2402 15.43H4.89024L3.93024 18H2.00024L6.71024 6Z" fill="white"/>
</svg>
