<svg width="84" height="20" viewBox="0 0 84 20" fill="none" xmlns="http://www.w3.org/2000/svg">
<path d="M13.7188 11.2963L14.1641 8.46734H11.4213V6.62852C11.4213 5.85497 11.8042 5.09911 13.0287 5.09911H14.2932V2.69007C13.5568 2.57264 12.8127 2.50911 12.0669 2.5C9.80949 2.5 8.33569 3.85702 8.33569 6.31026V8.46734H5.83334V11.2963H8.33569V18.1389H11.4213V11.2963H13.7188Z" fill="#CFCFCF"/>
<path d="M49.9593 4.95548C49.4299 5.18352 48.8734 5.34231 48.3034 5.42794C48.5699 5.38221 48.962 4.90214 49.118 4.70783C49.3551 4.41472 49.5359 4.08011 49.651 3.72101C49.651 3.69434 49.6776 3.65624 49.651 3.63719C49.6375 3.62985 49.6225 3.626 49.6072 3.626C49.5919 3.626 49.5768 3.62985 49.5634 3.63719C48.9445 3.97264 48.2859 4.22866 47.603 4.39921C47.5792 4.40648 47.5539 4.40714 47.5298 4.4011C47.5056 4.39505 47.4836 4.38255 47.466 4.36492C47.4128 4.30156 47.3556 4.24175 47.2947 4.18584C47.0162 3.93607 46.7002 3.73164 46.3583 3.58003C45.8967 3.39051 45.3982 3.30843 44.9004 3.34C44.4173 3.37053 43.9456 3.50023 43.5148 3.72101C43.0905 3.95378 42.7176 4.27 42.4185 4.65067C42.1038 5.04249 41.8767 5.49719 41.7523 5.98421C41.6497 6.44746 41.6381 6.92625 41.7181 7.39395C41.7181 7.47396 41.7181 7.48539 41.6495 7.47396C38.9354 7.0739 36.7086 6.10994 34.889 4.04106C34.8091 3.94961 34.7672 3.94961 34.7025 4.04106C33.9108 5.24505 34.2952 7.1501 35.2849 8.0912C35.4182 8.21693 35.5552 8.33886 35.6998 8.45316C35.2461 8.42091 34.8034 8.29783 34.398 8.0912C34.3219 8.04167 34.28 8.06834 34.2762 8.15978C34.2654 8.28656 34.2654 8.41402 34.2762 8.54079C34.3556 9.14835 34.5948 9.72389 34.9694 10.2086C35.3439 10.6932 35.8403 11.0697 36.4079 11.2993C36.5462 11.3586 36.6904 11.4033 36.838 11.4327C36.4179 11.5154 35.9871 11.5283 35.5628 11.4708C35.4715 11.4517 35.4372 11.5012 35.4715 11.5889C36.031 13.1129 37.2453 13.5778 38.1361 13.8368C38.2579 13.8559 38.3797 13.8559 38.5167 13.8864C38.5167 13.8864 38.5167 13.8864 38.4939 13.9092C38.2312 14.3893 37.1692 14.7132 36.6819 14.8808C35.7926 15.2006 34.8444 15.3228 33.9031 15.239C33.7547 15.2161 33.7204 15.2199 33.6824 15.239C33.6443 15.258 33.6824 15.2999 33.7242 15.338C33.9146 15.4638 34.1049 15.5743 34.3028 15.6809C34.8921 16.0026 35.5151 16.2582 36.1604 16.443C39.5026 17.365 43.2635 16.6868 45.7721 14.1912C47.7439 12.2328 48.4367 9.53142 48.4367 6.82624C48.4367 6.72337 48.5623 6.66241 48.6346 6.60907C49.1335 6.22002 49.5733 5.76055 49.9403 5.24505C50.0038 5.16821 50.0364 5.07037 50.0316 4.97072C50.0316 4.91357 50.0316 4.925 49.9593 4.95548Z" fill="#CFCFCF"/>
<path d="M72.6172 10.6282C72.9051 11.0135 73.2725 11.3324 73.6943 11.5631C74.1161 11.7938 74.5826 11.931 75.0621 11.9653C75.5415 11.9997 76.0227 11.9305 76.4731 11.7623C76.9235 11.5941 77.3325 11.3309 77.6723 10.9906L79.6836 8.97727C80.2942 8.34439 80.6321 7.49676 80.6245 6.61693C80.6168 5.73709 80.2643 4.89546 79.6428 4.2733C79.0212 3.65115 78.1805 3.29824 77.3015 3.29059C76.4226 3.28295 75.5759 3.62118 74.9436 4.23243L73.7905 5.38005M75.2986 9.28603C75.0107 8.90072 74.6434 8.5819 74.2215 8.3512C73.7997 8.12049 73.3332 7.9833 72.8538 7.94893C72.3743 7.91455 71.8931 7.9838 71.4427 8.15198C70.9924 8.32015 70.5834 8.58332 70.2436 8.92362L68.2323 10.937C67.6216 11.5699 67.2837 12.4175 67.2914 13.2973C67.299 14.1772 67.6516 15.0188 68.2731 15.641C68.8946 16.2631 69.7354 16.616 70.6143 16.6237C71.4932 16.6313 72.34 16.2931 72.9722 15.6818L74.1187 14.5342" stroke="#CFCFCF" stroke-width="1.5" stroke-linecap="round" stroke-linejoin="round"/>
</svg>
